<mxfile host="app.diagrams.net" modified="2023-05-05T17:11:35.117Z" agent="Mozilla/5.0 (X11; Linux x86_64) AppleWebKit/537.36 (KHTML, like Gecko) Chrome/112.0.0.0 Safari/537.36" etag="_ttPgwfM_ejcd690XX-j" version="21.2.9" type="github">
  <diagram name="Page-1" id="ft4wF2bk2luMIvqd_Q8e">
    <mxGraphModel dx="1184" dy="800" grid="1" gridSize="10" guides="1" tooltips="0" connect="1" arrows="1" fold="1" page="1" pageScale="1" pageWidth="850" pageHeight="1100" math="0" shadow="0">
      <root>
        <mxCell id="0" />
        <mxCell id="1" parent="0" />
        <mxCell id="tK3rm-bHYn2Zw6kKJ-5M-1" value="Internet_host&lt;br&gt;Flt_IP: 10.50.36.167&lt;br&gt;eth0: 10.10.0.40&lt;br&gt;tcpdump, wireshark, nmap, telnet, wget, curl, ssh" style="rounded=0;whiteSpace=wrap;html=1;labelBackgroundColor=none;" vertex="1" parent="1">
          <mxGeometry x="330" width="155" height="170" as="geometry" />
        </mxCell>
      </root>
    </mxGraphModel>
  </diagram>
</mxfile>
